<?xml version="1.0" ?><svg enable-background="new 0 0 40 40" id="Слой_1" version="1.1" viewBox="0 0 40 40" xml:space="preserve" xmlns="http://www.w3.org/2000/svg" xmlns:xlink="http://www.w3.org/1999/xlink"><g><path d="M38.6,27.7L11,16.4l4.8-6.4c0,0,0.1,0,0.1-0.1c0.1,0,0.1,0,0.2,0L33,23.7c0.2,0.2,0.4,0.2,0.6,0.2c0.3,0,0.6-0.1,0.8-0.4   c0.3-0.4,0.3-1.1-0.2-1.4L17.3,8.4c-0.5-0.4-1.1-0.5-1.7-0.5c-0.6,0.1-1.1,0.4-1.5,0.8L9,15.6L2.9,13c-0.3-0.1-0.5-0.2-0.8-0.2   c-1.2,0-2.1,0.9-2.1,2v14.5c0,1.1,1,2,2.1,2h35.8c1,0,1.8-0.7,2-1.6C40,28.9,39.5,28,38.6,27.7z M2,29.4c-0.1,0-0.1,0-0.1,0l0-14.5   c0,0,0.1-0.1,0.2,0l6.8,2.8l28.7,11.7H2z"/></g></svg>